<svg id="Layer_1" data-name="Layer 1" xmlns="http://www.w3.org/2000/svg" viewBox="0 0 128 128"><path d="M26.65862,59.61554c6.8207,0,12.35-10.38829,12.35-17.209s-5.52932-11.54016-12.35-11.54016-12.35,4.71947-12.35,11.54016S19.83792,59.61554,26.65862,59.61554Z" id="id_101" style="fill: rgb(207, 213, 214);"></path><path d="M82.50861,69.07878a4.60285,4.60285,0,0,0-4.4479,1.05545L64.95813,82.56041,48.78839,72.87709c-4.04011-2.576-8.72887-3.57678-12.78748-6.505a.88461.88461,0,0,0-1.40853.556c-.77832,4.105-3.02077,7.92269-5.68025,11.55507l-.52811-10.508a1.72619,1.72619,0,0,0-3.44711,0l-.53746,10.508c-2.65013-3.63238-4.89258-7.45012-5.671-11.55507a.88589.88589,0,0,0-1.40842-.556c-4.05866,2.92819-8.74742,3.929-12.78753,6.505a2.80334,2.80334,0,0,0-1.24165,1.74208C1.91941,81.087,1.002,103.354.88152,111.61026a1.6216,1.6216,0,0,0,1.62164,1.6402H46.94443a1.61551,1.61551,0,0,0,1.61229-1.62165V90.2329l16.70721,5.0687a4.05934,4.05934,0,0,0,4.25323-1.251L84.51928,76.51877a4.68535,4.68535,0,0,0,.20392-5.949A4.637,4.637,0,0,0,82.50861,69.07878Z" id="id_102" style="fill: rgb(208, 211, 212);"></path><path d="M121.44559,14.74954H51.76292a5.81937,5.81937,0,0,0-5.90267,5.50418A5.66615,5.66615,0,0,0,51.522,26.0915h1.82551V68.16059A4.0535,4.0535,0,0,0,57.39683,72.21h9.04386l5.1058-4.837c.68569-.64865,1.25095-1.18607,1.76062-1.6402H59.82459V26.0915H113.143V65.73272h-6.542V61.92433a.80675.80675,0,0,0-.80617-.80617H94.99028a.81468.81468,0,0,0-.81542.80617v3.80839H89.08761a8.92063,8.92063,0,0,1,.68574.75988A10.8281,10.8281,0,0,1,92.11768,72.21h23.453a4.04761,4.04761,0,0,0,4.04941-4.04936V26.0915h1.5938a5.83187,5.83187,0,0,0,5.90267-5.50423A5.67948,5.67948,0,0,0,121.44559,14.74954Z" id="id_103" style="fill: rgb(203, 206, 207);"></path><path d="M69.67,53.11742a2.07806,2.07806,0,0,0,1.61291.68367c1.02064,0,2.23715-.53108,2.23715-3.06135V35.989a2.77409,2.77409,0,0,0-.51216-1.74618,1.79981,1.79981,0,0,0-1.46729-.7099,1.53447,1.53447,0,0,0-1.16762.37937,14.25073,14.25073,0,0,0-.981,1.28613A10.09578,10.09578,0,0,1,67.81,36.934a10.45813,10.45813,0,0,1-2.38325,1.47466,9.43935,9.43935,0,0,0-1.53825.84862,1.582,1.582,0,0,0-.60111,1.34374,1.8555,1.8555,0,0,0,.55175,1.32717,1.76313,1.76313,0,0,0,1.29859.57482c.50614,0,1.45805-.22537,3.934-2.03977v10.779A2.71536,2.71536,0,0,0,69.67,53.11742Z" id="id_104" style="fill: rgb(197, 200, 201);"></path><path d="M92.54823,43.71861V43.667a2.13386,2.13386,0,0,0-2.13386-2.13386H87.58811V38.73267a2.13384,2.13384,0,0,0-2.13381-2.13386h-.00005a2.13384,2.13384,0,0,0-2.13381,2.13386V41.5331H80.52A2.13386,2.13386,0,0,0,78.38615,43.667v.05165A2.13386,2.13386,0,0,0,80.52,45.85247h2.80043v2.77461a2.13385,2.13385,0,0,0,2.13381,2.13386h.00005a2.13385,2.13385,0,0,0,2.13381-2.13386V45.85247h2.82626A2.13386,2.13386,0,0,0,92.54823,43.71861Z" id="id_105" style="fill: rgb(195, 198, 199);"></path><path d="M103.14194,42.24394a10.9103,10.9103,0,0,1-1.677,1.43087A20.58172,20.58172,0,0,0,99.438,45.38732c-.92421.851-1.97109,1.88308-3.11527,3.07013a4.87664,4.87664,0,0,0-.84681,1.33361,3.605,3.605,0,0,0-.39,1.42531,2.17638,2.17638,0,0,0,.68179,1.59271,2.51511,2.51511,0,0,0,1.83881.6702h9.48184a2.1347,2.1347,0,0,0,1.61017-.58354,1.95444,1.95444,0,0,0,.54946-1.39586,1.82589,1.82589,0,0,0-.70943-1.49264,2.90927,2.90927,0,0,0-1.82406-.51263h-5.78618c.01891-.02208.03782-.04375.05715-.065a20.34523,20.34523,0,0,1,2.59485-2.39519c1.31329-1.0741,2.22234-1.83933,2.7797-2.33991a9.55551,9.55551,0,0,0,1.7056-2.15511,5.99284,5.99284,0,0,0,.86016-3.14935,5.79121,5.79121,0,0,0-1.57193-3.95751,5.56046,5.56046,0,0,0-1.73558-1.24092,8.75517,8.75517,0,0,0-3.55413-.65873,8.20291,8.20291,0,0,0-3.02721.51627,6.38751,6.38751,0,0,0-2.16841,1.37232,5.80991,5.80991,0,0,0-1.29626,1.90708,5.34868,5.34868,0,0,0-.4347,2.03566,2.02709,2.02709,0,0,0,.56329,1.49312,1.91259,1.91259,0,0,0,1.40323.56328,1.81073,1.81073,0,0,0,1.47923-.63659,4.81459,4.81459,0,0,0,.76342-1.46958,5.77669,5.77669,0,0,1,.38165-.95517,2.54638,2.54638,0,0,1,2.25835-1.26722,2.5961,2.5961,0,0,1,1.25292.30565,2.23149,2.23149,0,0,1,.88691.83849A2.31336,2.31336,0,0,1,104.452,39.467a3.2105,3.2105,0,0,1-.324,1.35388A5.49625,5.49625,0,0,1,103.14194,42.24394Z" id="id_106" style="fill: rgb(186, 193, 194);"></path></svg>