<svg version="1.1" id="Layer_1" xmlns="http://www.w3.org/2000/svg" xmlns:xlink="http://www.w3.org/1999/xlink" x="0px" y="0px" viewBox="0 0 153.3635 227.6915" enable-background="new 0 0 153.3635 227.6915" xml:space="preserve">
<g>
	<path d="M73.4883,171.8873v45.8042c0,5.5234,4.4766,10,10,10c5.5215,0,10-4.4766,10-10v-49.544
		c-5.8018-0.0732-11.0225-0.5205-15.6455-1.1831C77.0625,169.1168,75.5,170.8682,73.4883,171.8873z" id="id_101" style="fill: rgb(205, 208, 209);"></path>
	<path d="M96.8223,217.6915c0,5.5234,4.4746,10,10,10c5.5195,0,10-4.4766,10-10v-51.4419c-5.6172,1.042-12.2959,1.8008-20,1.8979
		V217.6915z" id="id_102" style="fill: rgb(203, 212, 214);"></path>
	<path d="M90.2813,42.4356c11.5625,2.6914,23.1172-4.498,25.8086-16.0605c2.6914-11.5625-4.4981-23.1172-16.0586-25.8106
		c-11.5625-2.6914-23.1172,4.5-25.8106,16.0606C71.5274,28.1876,78.7188,39.7442,90.2813,42.4356z" id="id_103" style="fill: rgb(197, 200, 201);"></path>
	<path d="M140.419,128.4254c0.4687,3.5581,3.7334,6.0629,7.292,5.5947c3.5585-0.4688,6.0664-3.7334,5.5957-7.2944
		c-4.6104-34.938-14.0948-54.1167-23.2373-64.7735c-8.4463-9.8872-16.5733-12.02-18.7266-12.3628
		c-1.874-0.4624-8.7324-2.0737-16.1875-2.0981c-7.4561,0.0244-14.3135,1.6352-16.1885,2.0981
		c-2.1533,0.3423-10.2793,2.4746-18.7275,12.3628c-2.0176,2.3521-4.0528,5.1206-6.0469,8.3809
		c3.7881,4.04,6.1152,9.4663,6.1152,15.4297c0,0.396-0.0185,0.7895-0.04,1.1826c2.9033-6.7793,5.9473-11.6826,8.749-15.2046
		l-7.792,38.2934c2.3496,1.4253,5.0059,3.6309,7.4649,7.0665c6.5605,9.0839,9.7578,22.8544,9.7715,42.0839
		c-0.003,1.5957-0.0254,3.2315-0.0713,4.9161c0,0.0092-0.002,0.0185-0.002,0.0278c4.9307,0.6816,10.5244,1.1196,16.7666,1.1196
		c25.2647,0,39.9287-7.1577,42.8008-8.7031c0.3477-0.187,0.5332-0.2969,0.5332-0.2969l-17.1904-84.4917
		c0.08,0.1001,0.1572,0.1885,0.2383,0.291C128.252,80.6348,136.3037,97.2012,140.419,128.4254z" id="id_104" style="fill: rgb(188, 195, 196);"></path>
	<path d="M16.6895,218.4825c0,4.9414,4.0078,8.9492,8.9511,8.9492c4.9414,0,8.9493-4.0078,8.9493-8.9492v-39.9551h6.2812v39.9551
		c0,4.9414,4.0059,8.9492,8.9492,8.9492c4.9434,0,8.9492-4.0078,8.9492-8.9492v-54.6484h-42.08V218.4825z" id="id_105" style="fill: rgb(200, 203, 204);"></path>
	<path d="M75.459,159.1856c-0.0117-21.3164-4.1309-33.3076-9.209-40.3398c-4.8047-6.71-10.4844-8.2022-12.0859-8.378
		c-0.3203-0.0576-0.6504-0.0927-0.9883-0.0927h-5.7344c-1.7344,3.0908-5.4258,5.2314-9.7109,5.2314
		c-4.2852,0-7.9766-2.1406-9.711-5.2314h-5.7363c-0.3379,0-0.6679,0.0351-0.9902,0.0927c-1.6035,0.1778-7.2813,1.6719-12.084,8.3789
		C4.1328,125.878,0.0117,137.8702,0,159.1866c0,1.5576,0.0215,3.1748,0.0703,4.8506c0.0938,3.2519,2.7578,5.8252,5.9922,5.8252
		c0.0606,0,0.1192-0.001,0.1797-0.002c3.3125-0.0957,5.9199-2.8594,5.8242-6.1719C12.0215,162.1358,12,160.6358,12,159.1866
		c-0.0078-15.1104,2.2793-24.1563,4.6895-29.4072v30.0547h42.08v-30.0508c2.4102,5.2363,4.6973,14.3056,4.6895,29.4023
		c0,1.4453-0.0234,2.9502-0.0625,4.5156c-0.0898,3.3135,2.5234,6.0694,5.8379,6.1592c0.0527,0.002,0.1074,0.002,0.1621,0.002
		c3.2402,0.0009,5.9082-2.5811,5.9941-5.8399C75.4356,162.3614,75.457,160.751,75.459,159.1856z" id="id_106" style="fill: rgb(201, 208, 209);"></path>
	<path d="M47.5606,102.6749c5.8242-3.3926,9.748-9.6875,9.748-16.9131c0-10.8125-8.7656-19.5781-19.5781-19.5781
		c-10.8125,0-19.5781,8.7656-19.5781,19.5781c0,7.2256,3.9257,13.5205,9.75,16.9131c2.8906,1.6836,6.2421,2.665,9.8281,2.665
		C41.3184,105.3399,44.6699,104.3594,47.5606,102.6749z" id="id_107" style="fill: rgb(199, 206, 207);"></path>
</g>
</svg>