<svg xmlns="http://www.w3.org/2000/svg" xml:space="preserve" width="1.99999in" height="1.99999in" version="1.1" style="shape-rendering:geometricPrecision; text-rendering:geometricPrecision; image-rendering:optimizeQuality; fill-rule:evenodd; clip-rule:evenodd" viewBox="0 0 2000 2000" xmlns:xlink="http://www.w3.org/1999/xlink">
 <defs>
  <style type="text/css">
   
    .fil1 {fill:#282828}
    .fil0 {fill:#EEB244}
   
  </style>
 </defs>
 <g id="Layer_x0020_1">
  <metadata id="CorelCorpID_0Corel-Layer"></metadata>
  <path class="fil0" d="M1536 1109c-176,0 -318,-143 -318,-318 0,-175 142,-318 318,-318 175,0 317,143 317,318 0,175 -142,318 -317,318z" id="id_104" style="fill: rgb(220, 226, 227);"></path>
  <path class="fil1" d="M1103 625c-1,0 -3,0 -4,-1 -11,-1 -19,-11 -19,-22 -1,-128 -156,-218 -294,-218 -136,0 -222,82 -232,220 -1,10 -8,18 -18,20 -10,2 -20,-3 -25,-12 -1,-2 -115,-236 93,-392 4,-3 92,-68 212,-68 67,0 130,20 189,60 202,136 120,394 119,397 -3,9 -12,16 -21,16zm-287 -427c-104,0 -184,58 -185,58 -106,80 -115,182 -104,253 44,-124 156,-170 259,-170 121,0 254,62 311,161 3,-76 -15,-181 -118,-251 -50,-34 -105,-51 -163,-51z" id="id_105" style="fill: rgb(220, 230, 232);"></path>
  <path class="fil1" d="M817 1015c-170,0 -308,-138 -308,-308l0 -105c0,-13 10,-23 22,-23 13,0 23,10 23,23l0 105c0,145 118,263 263,263 145,0 263,-118 263,-263l0 -106c0,-12 10,-22 23,-22 12,0 23,10 23,22l0 106c0,170 -139,308 -309,308z" id="id_106" style="fill: rgb(216, 228, 230);"></path>
  <path class="fil1" d="M1451 1848l-1282 0c-12,0 -22,-11 -22,-23l0 -362c0,-212 172,-385 384,-385l76 0c7,0 13,4 18,10l185 245 186 -245c4,-6 11,-10 18,-10l75 0c212,0 385,173 385,385l0 362c0,12 -10,23 -23,23zm-1259 -46l1236 0 0 -339c0,-187 -152,-339 -339,-339l-64 0 -197 261c-8,11 -27,11 -36,0l-197 -261 -64 0c-187,0 -339,152 -339,339l0 339z" id="id_107" style="fill: rgb(202, 216, 219);"></path>
  <path class="fil1" d="M607 1124c-4,0 -8,-1 -12,-3 -11,-6 -14,-20 -8,-31l81 -140c6,-11 20,-15 31,-8 11,6 14,20 8,31l-81 140c-4,7 -12,11 -19,11z" id="id_108" style="fill: rgb(218, 226, 227);"></path>
  <path class="fil1" d="M1014 1124c-8,0 -16,-4 -20,-11l-78 -135c-6,-11 -2,-25 9,-31 11,-6 24,-3 31,8l77 135c7,11 3,25 -8,31 -3,2 -7,3 -11,3z" id="id_109" style="fill: rgb(206, 213, 214);"></path>
  <path class="fil1" d="M419 1848c-13,0 -23,-11 -23,-23l0 -333c0,-13 10,-23 23,-23 12,0 22,10 22,23l0 333c0,12 -10,23 -22,23z" id="id_110" style="fill: rgb(207, 213, 214);"></path>
  <path class="fil1" d="M1202 1848c-13,0 -23,-11 -23,-23l0 -333c0,-13 10,-23 23,-23 12,0 22,10 22,23l0 333c0,12 -10,23 -22,23z" id="id_111" style="fill: rgb(220, 230, 232);"></path>
  <path class="fil1" d="M1480 915c-6,0 -12,-2 -16,-7l-90 -90c-9,-9 -9,-23 0,-32 8,-9 23,-9 32,0l74 74 186 -186c8,-9 23,-9 32,0 9,9 9,23 0,32l-202 202c-5,5 -11,7 -16,7z" id="id_112" style="fill: rgb(28, 32, 33);"></path>
 </g>
</svg>